<svg width="165" height="150" viewBox="0 0 165 150" fill="none" xmlns="http://www.w3.org/2000/svg">
<ellipse cx="82.5" cy="75" rx="82.5" ry="75" fill="#4180AB"/>
<path d="M40.0193 23.0271C39.9376 23.0258 39.8559 23.0266 39.7742 23.0296C38.8198 23.0622 38.163 23.3902 37.7153 23.8475C37.1184 24.4573 36.7462 25.4466 36.9848 27.0305C37.2238 28.6145 38.1418 30.7229 40.094 33.0495C53.9164 49.5229 67.158 65.4016 77.4938 77.1333C79.9924 79.9692 82.3174 82.557 84.4412 84.8562C86.9036 78.2214 91.4792 73.5957 97.2473 71.3972C95.0434 69.2761 92.5778 66.9647 89.878 64.4826C78.394 53.9243 62.8497 40.3971 46.7237 26.2771C44.4463 24.2826 42.3821 23.3451 40.8316 23.1009C40.5628 23.0576 40.2914 23.0329 40.0193 23.0271ZM116.387 23.244C116.325 23.2434 116.265 23.2448 116.209 23.2488C115.759 23.2794 115.529 23.3848 115.277 23.6421L109.662 29.3779L120.891 40.8484L126.506 35.1126C126.758 34.8555 126.861 34.6213 126.891 34.1613C126.921 33.7017 126.815 33.0312 126.523 32.2554C125.939 30.704 124.635 28.7892 123.051 27.1716C121.468 25.5539 119.593 24.2215 118.075 23.6246C117.41 23.3636 116.825 23.2482 116.387 23.244H116.387ZM107.071 32.0246L105.056 34.0837L107.071 36.1422L109.662 38.7895L111.678 40.848L114.269 43.4953L116.284 45.5542L118.3 43.4953L107.071 32.0246ZM102.465 36.7306L84.6733 54.9053L86.8042 56.8461L104.48 38.7895L102.465 36.7306ZM107.071 41.4368L89.5439 59.3411L91.6753 61.2817L109.087 43.4953L107.071 41.4368ZM111.678 46.1419L94.415 63.7769L96.5463 65.7177L113.694 48.2011L111.679 46.1422H111.678V46.1419ZM68.1395 71.7953L43.7299 96.731L45.745 98.7895L70.0416 73.9697L68.1395 71.7953ZM100.237 74.3215C94.0357 75.9077 89.3982 80.391 87.2874 87.8851C88.438 89.0882 89.5179 90.1905 90.5 91.1517C92.0432 92.6624 93.3697 93.8568 94.4109 94.6783C94.7727 91.096 96.4559 87.8023 98.8176 85.3838C100.976 83.1735 103.805 81.639 106.783 81.4132C105.995 80.4074 104.922 79.1775 103.601 77.7689C102.616 76.7193 101.48 75.5596 100.237 74.3215ZM72.4875 76.7648L48.3361 101.436L50.3516 103.495L74.3903 78.9392L72.4875 76.7648ZM76.8364 81.7341L52.9431 106.142L54.9578 108.201L78.7389 83.9084L76.8364 81.7341ZM107.434 85.1255C105.318 85.154 103.173 86.2236 101.412 88.0277C99.0629 90.4329 97.6099 94.028 98.0999 97.5323C99.1859 105.298 102.935 111.219 108.169 114.427C112.797 117.263 118.644 118.035 125.198 115.879C120.267 115.045 115.736 109.494 115.386 105.346C117.55 108.011 120.26 110.451 123.209 111.949C121.197 107.253 121.336 102.496 120.951 98.5717C120.676 95.7595 120.159 93.3762 118.635 91.259C117.111 89.1419 114.477 87.1412 109.527 85.4553C108.852 85.226 108.145 85.1145 107.434 85.1255ZM41.8076 100.061L41.807 100.062L41.8074 100.062L41.8076 100.061ZM41.8074 100.062L39.3405 106.364L45.528 112.685L51.6977 110.164L50.352 108.789L47.7599 106.142L45.7448 104.084L43.1531 101.437L41.8074 100.062ZM37.8588 110.146L35.2138 116.9L41.8259 114.198L37.8588 110.146Z" fill="white"/>
</svg>
