<svg xmlns="http://www.w3.org/2000/svg" viewBox="0 0 291.54 389.05"><defs><style>.cls-1{fill:#dff3fc;}.cls-2{fill:#b6e3f6;}.cls-3{fill:#a4dbfa;}.cls-4{fill:#bbe4fa;}.cls-5{fill:#a3d9f1;}.cls-6{fill:#9cdbfa;}</style></defs><g id="Capa_2" data-name="Capa 2"><g id="Capa_1-2" data-name="Capa 1"><rect class="cls-1" width="291.54" height="389.05"/><rect class="cls-2" x="12.19" y="18.67" width="61.14" height="55.96"/><path class="cls-2" d="M.13,118l0,271,73.17.06a166.93,166.93,0,0,0,26.78-12.88,167.75,167.75,0,0,0,34.48-27.29,135.16,135.16,0,0,0,20.65-31.64c24.21-51.79,6.78-101.85,4-109.51a143.66,143.66,0,0,0-45.47-63.1A137.2,137.2,0,0,0,73.33,123,149.27,149.27,0,0,0,.13,118Z"/><circle class="cls-3" cx="137.34" cy="134.73" r="8.43"/><ellipse class="cls-2" cx="223.07" cy="283.18" rx="27.47" ry="26.53"/><circle class="cls-4" cx="262.11" cy="326.95" r="15.35"/><ellipse class="cls-5" cx="185.37" cy="337.65" rx="9.09" ry="8.81"/><ellipse class="cls-2" cx="260.78" cy="144.29" rx="14.02" ry="13.07"/><ellipse class="cls-6" cx="272.69" cy="117.34" rx="4.14" ry="3.74"/></g></g></svg>